<svg width="17" height="30" viewBox="0 0 17 30" fill="none" xmlns="http://www.w3.org/2000/svg">
<path d="M15.7004 13.5675H14.9167V7.23599C14.9167 3.23966 11.9302 0 8.24628 0C4.56232 0 1.57588 3.23966 1.57588 7.23599V13.5675H0.833799C0.373305 13.5675 0 13.9724 0 14.472C0 14.9715 0.373305 15.3765 0.833799 15.3765H15.7004C16.1609 15.3765 16.5342 14.9715 16.5342 14.472C16.5342 13.9724 16.1609 13.5675 15.7004 13.5675Z" fill="#189AB4"/>
<path d="M8.24621 18.0899C9.30368 18.0867 10.245 17.3625 10.5975 16.2809H5.8949C6.24738 17.3625 7.18874 18.0867 8.24621 18.0899Z" fill="#189AB4"/>
<circle cx="8" cy="28" r="2" fill="#189AB4"/>
</svg>
